<mxfile host="app.diagrams.net" agent="Mozilla/5.0 (Windows NT 10.0; Win64; x64) AppleWebKit/537.36 (KHTML, like Gecko) Chrome/128.0.0.0 Safari/537.36" version="24.7.12">
  <diagram name="Page-1" id="93kePY1KIJjtLg7fSRNb">
    <mxGraphModel dx="1185" dy="627" grid="1" gridSize="10" guides="1" tooltips="1" connect="1" arrows="1" fold="1" page="1" pageScale="1" pageWidth="827" pageHeight="1169" math="0" shadow="0">
      <root>
        <mxCell id="0" />
        <mxCell id="1" parent="0" />
        <mxCell id="5VMT1t41ffKibYWwTFaG-23" style="edgeStyle=orthogonalEdgeStyle;shape=connector;rounded=0;orthogonalLoop=1;jettySize=auto;html=1;entryX=1;entryY=0.75;entryDx=0;entryDy=0;strokeColor=default;align=center;verticalAlign=middle;fontFamily=Helvetica;fontSize=12;fontColor=default;labelBackgroundColor=default;endArrow=none;endFill=0;" edge="1" parent="1">
          <mxGeometry relative="1" as="geometry">
            <mxPoint x="340" y="550" as="sourcePoint" />
            <mxPoint x="260" y="550" as="targetPoint" />
          </mxGeometry>
        </mxCell>
        <mxCell id="5VMT1t41ffKibYWwTFaG-24" style="edgeStyle=orthogonalEdgeStyle;shape=connector;rounded=0;orthogonalLoop=1;jettySize=auto;html=1;exitX=0;exitY=0.75;exitDx=0;exitDy=0;exitPerimeter=0;strokeColor=default;align=center;verticalAlign=middle;fontFamily=Helvetica;fontSize=12;fontColor=default;labelBackgroundColor=default;endArrow=none;endFill=0;" edge="1" parent="1" source="5VMT1t41ffKibYWwTFaG-4">
          <mxGeometry relative="1" as="geometry">
            <mxPoint x="320" y="550" as="targetPoint" />
          </mxGeometry>
        </mxCell>
        <mxCell id="5VMT1t41ffKibYWwTFaG-4" value="" style="verticalLabelPosition=bottom;shadow=0;dashed=0;align=center;html=1;verticalAlign=top;shape=mxgraph.electrical.logic_gates.logic_gate;operation=and;negating=1;negSize=0.15;numInputs=2;" vertex="1" parent="1">
          <mxGeometry x="340" y="540" width="86" height="40" as="geometry" />
        </mxCell>
        <mxCell id="5VMT1t41ffKibYWwTFaG-25" style="edgeStyle=orthogonalEdgeStyle;shape=connector;rounded=0;orthogonalLoop=1;jettySize=auto;html=1;exitX=0;exitY=0.75;exitDx=0;exitDy=0;exitPerimeter=0;entryX=1;entryY=0.75;entryDx=0;entryDy=0;strokeColor=default;align=center;verticalAlign=middle;fontFamily=Helvetica;fontSize=12;fontColor=default;labelBackgroundColor=default;endArrow=none;endFill=0;" edge="1" parent="1" source="5VMT1t41ffKibYWwTFaG-17">
          <mxGeometry relative="1" as="geometry">
            <mxPoint x="260" y="630" as="targetPoint" />
          </mxGeometry>
        </mxCell>
        <mxCell id="5VMT1t41ffKibYWwTFaG-31" style="edgeStyle=orthogonalEdgeStyle;shape=connector;rounded=0;orthogonalLoop=1;jettySize=auto;html=1;exitX=1;exitY=0.5;exitDx=0;exitDy=0;exitPerimeter=0;strokeColor=default;align=center;verticalAlign=middle;fontFamily=Helvetica;fontSize=12;fontColor=default;labelBackgroundColor=default;endArrow=none;endFill=0;" edge="1" parent="1" source="5VMT1t41ffKibYWwTFaG-17">
          <mxGeometry relative="1" as="geometry">
            <mxPoint x="580" y="530" as="targetPoint" />
          </mxGeometry>
        </mxCell>
        <mxCell id="5VMT1t41ffKibYWwTFaG-17" value="" style="verticalLabelPosition=bottom;shadow=0;dashed=0;align=center;html=1;verticalAlign=top;shape=mxgraph.electrical.logic_gates.logic_gate;operation=and;negating=1;negSize=0.15;numInputs=2;" vertex="1" parent="1">
          <mxGeometry x="470" y="600" width="86" height="40" as="geometry" />
        </mxCell>
        <mxCell id="5VMT1t41ffKibYWwTFaG-26" style="edgeStyle=orthogonalEdgeStyle;shape=connector;rounded=0;orthogonalLoop=1;jettySize=auto;html=1;exitX=1;exitY=0.5;exitDx=0;exitDy=0;exitPerimeter=0;entryX=0;entryY=0.25;entryDx=0;entryDy=0;entryPerimeter=0;strokeColor=default;align=center;verticalAlign=middle;fontFamily=Helvetica;fontSize=12;fontColor=default;labelBackgroundColor=default;endArrow=none;endFill=0;" edge="1" parent="1" source="5VMT1t41ffKibYWwTFaG-4" target="5VMT1t41ffKibYWwTFaG-17">
          <mxGeometry relative="1" as="geometry" />
        </mxCell>
        <mxCell id="5VMT1t41ffKibYWwTFaG-28" style="edgeStyle=orthogonalEdgeStyle;shape=connector;rounded=0;orthogonalLoop=1;jettySize=auto;html=1;exitX=0;exitY=0.75;exitDx=0;exitDy=0;exitPerimeter=0;strokeColor=default;align=center;verticalAlign=middle;fontFamily=Helvetica;fontSize=12;fontColor=default;labelBackgroundColor=default;endArrow=none;endFill=0;" edge="1" parent="1" source="5VMT1t41ffKibYWwTFaG-27">
          <mxGeometry relative="1" as="geometry">
            <mxPoint x="320" y="550" as="targetPoint" />
          </mxGeometry>
        </mxCell>
        <mxCell id="5VMT1t41ffKibYWwTFaG-29" style="edgeStyle=orthogonalEdgeStyle;shape=connector;rounded=0;orthogonalLoop=1;jettySize=auto;html=1;exitX=0;exitY=0.25;exitDx=0;exitDy=0;exitPerimeter=0;entryX=1;entryY=0.5;entryDx=0;entryDy=0;strokeColor=default;align=center;verticalAlign=middle;fontFamily=Helvetica;fontSize=12;fontColor=default;labelBackgroundColor=default;endArrow=none;endFill=0;" edge="1" parent="1" source="5VMT1t41ffKibYWwTFaG-27">
          <mxGeometry relative="1" as="geometry">
            <mxPoint x="250" y="460" as="targetPoint" />
          </mxGeometry>
        </mxCell>
        <mxCell id="5VMT1t41ffKibYWwTFaG-27" value="" style="verticalLabelPosition=bottom;shadow=0;dashed=0;align=center;html=1;verticalAlign=top;shape=mxgraph.electrical.logic_gates.logic_gate;operation=and;negating=1;negSize=0.15;numInputs=2;" vertex="1" parent="1">
          <mxGeometry x="340" y="450" width="86" height="40" as="geometry" />
        </mxCell>
        <mxCell id="5VMT1t41ffKibYWwTFaG-33" style="edgeStyle=orthogonalEdgeStyle;shape=connector;rounded=0;orthogonalLoop=1;jettySize=auto;html=1;exitX=1;exitY=0.5;exitDx=0;exitDy=0;exitPerimeter=0;strokeColor=default;align=center;verticalAlign=middle;fontFamily=Helvetica;fontSize=12;fontColor=default;labelBackgroundColor=default;endArrow=none;endFill=0;" edge="1" parent="1" source="5VMT1t41ffKibYWwTFaG-30">
          <mxGeometry relative="1" as="geometry">
            <mxPoint x="700" y="519.8571428571429" as="targetPoint" />
          </mxGeometry>
        </mxCell>
        <mxCell id="5VMT1t41ffKibYWwTFaG-30" value="" style="verticalLabelPosition=bottom;shadow=0;dashed=0;align=center;html=1;verticalAlign=top;shape=mxgraph.electrical.logic_gates.logic_gate;operation=and;negating=1;negSize=0.15;numInputs=2;" vertex="1" parent="1">
          <mxGeometry x="580" y="500" width="86" height="40" as="geometry" />
        </mxCell>
        <mxCell id="5VMT1t41ffKibYWwTFaG-32" style="edgeStyle=orthogonalEdgeStyle;shape=connector;rounded=0;orthogonalLoop=1;jettySize=auto;html=1;exitX=1;exitY=0.5;exitDx=0;exitDy=0;exitPerimeter=0;entryX=0;entryY=0.25;entryDx=0;entryDy=0;entryPerimeter=0;strokeColor=default;align=center;verticalAlign=middle;fontFamily=Helvetica;fontSize=12;fontColor=default;labelBackgroundColor=default;endArrow=none;endFill=0;" edge="1" parent="1" source="5VMT1t41ffKibYWwTFaG-27" target="5VMT1t41ffKibYWwTFaG-30">
          <mxGeometry relative="1" as="geometry">
            <Array as="points">
              <mxPoint x="460" y="470" />
              <mxPoint x="460" y="510" />
            </Array>
          </mxGeometry>
        </mxCell>
        <mxCell id="5VMT1t41ffKibYWwTFaG-34" value="Z" style="rounded=0;whiteSpace=wrap;html=1;" vertex="1" parent="1">
          <mxGeometry x="720" y="500" width="20" height="30" as="geometry" />
        </mxCell>
        <mxCell id="5VMT1t41ffKibYWwTFaG-43" value="B" style="rounded=0;whiteSpace=wrap;html=1;" vertex="1" parent="1">
          <mxGeometry x="240" y="530" width="20" height="30" as="geometry" />
        </mxCell>
        <mxCell id="5VMT1t41ffKibYWwTFaG-44" value="C" style="rounded=0;whiteSpace=wrap;html=1;" vertex="1" parent="1">
          <mxGeometry x="240" y="610" width="20" height="30" as="geometry" />
        </mxCell>
        <mxCell id="5VMT1t41ffKibYWwTFaG-45" value="A" style="rounded=0;whiteSpace=wrap;html=1;" vertex="1" parent="1">
          <mxGeometry x="240" y="440" width="20" height="30" as="geometry" />
        </mxCell>
        <mxCell id="5VMT1t41ffKibYWwTFaG-51" style="edgeStyle=orthogonalEdgeStyle;shape=connector;rounded=0;orthogonalLoop=1;jettySize=auto;html=1;exitX=0.5;exitY=1;exitDx=0;exitDy=0;strokeColor=default;align=center;verticalAlign=middle;fontFamily=Helvetica;fontSize=12;fontColor=default;labelBackgroundColor=default;endArrow=none;endFill=0;" edge="1" parent="1" source="5VMT1t41ffKibYWwTFaG-47">
          <mxGeometry relative="1" as="geometry">
            <mxPoint x="210" y="1020" as="targetPoint" />
          </mxGeometry>
        </mxCell>
        <mxCell id="5VMT1t41ffKibYWwTFaG-47" value="B" style="rounded=0;whiteSpace=wrap;html=1;" vertex="1" parent="1">
          <mxGeometry x="200" y="750" width="20" height="30" as="geometry" />
        </mxCell>
        <mxCell id="5VMT1t41ffKibYWwTFaG-52" style="edgeStyle=orthogonalEdgeStyle;shape=connector;rounded=0;orthogonalLoop=1;jettySize=auto;html=1;exitX=0.5;exitY=1;exitDx=0;exitDy=0;strokeColor=default;align=center;verticalAlign=middle;fontFamily=Helvetica;fontSize=12;fontColor=default;labelBackgroundColor=default;endArrow=none;endFill=0;" edge="1" parent="1" source="5VMT1t41ffKibYWwTFaG-48">
          <mxGeometry relative="1" as="geometry">
            <mxPoint x="270" y="1020" as="targetPoint" />
          </mxGeometry>
        </mxCell>
        <mxCell id="5VMT1t41ffKibYWwTFaG-48" value="C" style="rounded=0;whiteSpace=wrap;html=1;" vertex="1" parent="1">
          <mxGeometry x="260" y="750" width="20" height="30" as="geometry" />
        </mxCell>
        <mxCell id="5VMT1t41ffKibYWwTFaG-50" style="edgeStyle=orthogonalEdgeStyle;shape=connector;rounded=0;orthogonalLoop=1;jettySize=auto;html=1;exitX=0.5;exitY=1;exitDx=0;exitDy=0;strokeColor=default;align=center;verticalAlign=middle;fontFamily=Helvetica;fontSize=12;fontColor=default;labelBackgroundColor=default;endArrow=none;endFill=0;" edge="1" parent="1" source="5VMT1t41ffKibYWwTFaG-49">
          <mxGeometry relative="1" as="geometry">
            <mxPoint x="150" y="1020" as="targetPoint" />
          </mxGeometry>
        </mxCell>
        <mxCell id="5VMT1t41ffKibYWwTFaG-49" value="A" style="rounded=0;whiteSpace=wrap;html=1;" vertex="1" parent="1">
          <mxGeometry x="140" y="750" width="20" height="30" as="geometry" />
        </mxCell>
        <mxCell id="5VMT1t41ffKibYWwTFaG-54" style="edgeStyle=orthogonalEdgeStyle;shape=connector;rounded=0;orthogonalLoop=1;jettySize=auto;html=1;exitX=0;exitY=0.25;exitDx=0;exitDy=0;exitPerimeter=0;strokeColor=default;align=center;verticalAlign=middle;fontFamily=Helvetica;fontSize=12;fontColor=default;labelBackgroundColor=default;endArrow=oval;endFill=1;" edge="1" parent="1" source="5VMT1t41ffKibYWwTFaG-53">
          <mxGeometry relative="1" as="geometry">
            <mxPoint x="210" y="799.8571428571429" as="targetPoint" />
          </mxGeometry>
        </mxCell>
        <mxCell id="5VMT1t41ffKibYWwTFaG-55" style="edgeStyle=orthogonalEdgeStyle;shape=connector;rounded=0;orthogonalLoop=1;jettySize=auto;html=1;exitX=0;exitY=0.75;exitDx=0;exitDy=0;exitPerimeter=0;strokeColor=default;align=center;verticalAlign=middle;fontFamily=Helvetica;fontSize=12;fontColor=default;labelBackgroundColor=default;endArrow=none;endFill=0;" edge="1" parent="1" source="5VMT1t41ffKibYWwTFaG-53">
          <mxGeometry relative="1" as="geometry">
            <mxPoint x="320" y="800" as="targetPoint" />
            <Array as="points">
              <mxPoint x="310" y="820" />
              <mxPoint x="310" y="800" />
            </Array>
          </mxGeometry>
        </mxCell>
        <mxCell id="5VMT1t41ffKibYWwTFaG-57" style="edgeStyle=orthogonalEdgeStyle;shape=connector;rounded=0;orthogonalLoop=1;jettySize=auto;html=1;exitX=1;exitY=0.5;exitDx=0;exitDy=0;exitPerimeter=0;strokeColor=default;align=center;verticalAlign=middle;fontFamily=Helvetica;fontSize=12;fontColor=default;labelBackgroundColor=default;endArrow=none;endFill=0;" edge="1" parent="1" source="5VMT1t41ffKibYWwTFaG-53">
          <mxGeometry relative="1" as="geometry">
            <mxPoint x="400" y="840" as="targetPoint" />
          </mxGeometry>
        </mxCell>
        <mxCell id="5VMT1t41ffKibYWwTFaG-53" value="" style="verticalLabelPosition=bottom;shadow=0;dashed=0;align=center;html=1;verticalAlign=top;shape=mxgraph.electrical.logic_gates.logic_gate;operation=and;negating=1;negSize=0.15;numInputs=2;" vertex="1" parent="1">
          <mxGeometry x="310" y="790" width="86" height="40" as="geometry" />
        </mxCell>
        <mxCell id="5VMT1t41ffKibYWwTFaG-58" style="edgeStyle=orthogonalEdgeStyle;shape=connector;rounded=0;orthogonalLoop=1;jettySize=auto;html=1;exitX=0;exitY=0.75;exitDx=0;exitDy=0;exitPerimeter=0;strokeColor=default;align=center;verticalAlign=middle;fontFamily=Helvetica;fontSize=12;fontColor=default;labelBackgroundColor=default;endArrow=oval;endFill=1;" edge="1" parent="1" source="5VMT1t41ffKibYWwTFaG-56">
          <mxGeometry relative="1" as="geometry">
            <mxPoint x="270" y="859.8571428571429" as="targetPoint" />
          </mxGeometry>
        </mxCell>
        <mxCell id="5VMT1t41ffKibYWwTFaG-65" style="edgeStyle=orthogonalEdgeStyle;shape=connector;rounded=0;orthogonalLoop=1;jettySize=auto;html=1;exitX=1;exitY=0.5;exitDx=0;exitDy=0;exitPerimeter=0;strokeColor=default;align=center;verticalAlign=middle;fontFamily=Helvetica;fontSize=12;fontColor=default;labelBackgroundColor=default;endArrow=none;endFill=0;entryX=0;entryY=0.16666666666666666;entryDx=0;entryDy=0;entryPerimeter=0;" edge="1" parent="1" source="5VMT1t41ffKibYWwTFaG-56" target="5VMT1t41ffKibYWwTFaG-67">
          <mxGeometry relative="1" as="geometry">
            <mxPoint x="570" y="890" as="targetPoint" />
            <Array as="points">
              <mxPoint x="500" y="850" />
              <mxPoint x="500" y="920" />
            </Array>
          </mxGeometry>
        </mxCell>
        <mxCell id="5VMT1t41ffKibYWwTFaG-56" value="" style="verticalLabelPosition=bottom;shadow=0;dashed=0;align=center;html=1;verticalAlign=top;shape=mxgraph.electrical.logic_gates.logic_gate;operation=and;negating=1;negSize=0.15;numInputs=2;" vertex="1" parent="1">
          <mxGeometry x="400" y="830" width="86" height="40" as="geometry" />
        </mxCell>
        <mxCell id="5VMT1t41ffKibYWwTFaG-60" style="edgeStyle=orthogonalEdgeStyle;shape=connector;rounded=0;orthogonalLoop=1;jettySize=auto;html=1;exitX=0;exitY=0.25;exitDx=0;exitDy=0;exitPerimeter=0;strokeColor=default;align=center;verticalAlign=middle;fontFamily=Helvetica;fontSize=12;fontColor=default;labelBackgroundColor=default;endArrow=oval;endFill=1;" edge="1" parent="1" source="5VMT1t41ffKibYWwTFaG-59">
          <mxGeometry relative="1" as="geometry">
            <mxPoint x="150" y="930.1428571428571" as="targetPoint" />
          </mxGeometry>
        </mxCell>
        <mxCell id="5VMT1t41ffKibYWwTFaG-61" style="edgeStyle=orthogonalEdgeStyle;shape=connector;rounded=0;orthogonalLoop=1;jettySize=auto;html=1;exitX=0;exitY=0.75;exitDx=0;exitDy=0;exitPerimeter=0;strokeColor=default;align=center;verticalAlign=middle;fontFamily=Helvetica;fontSize=12;fontColor=default;labelBackgroundColor=default;endArrow=oval;endFill=1;" edge="1" parent="1" source="5VMT1t41ffKibYWwTFaG-59">
          <mxGeometry relative="1" as="geometry">
            <mxPoint x="210" y="950.1428571428571" as="targetPoint" />
          </mxGeometry>
        </mxCell>
        <mxCell id="5VMT1t41ffKibYWwTFaG-66" style="edgeStyle=orthogonalEdgeStyle;shape=connector;rounded=0;orthogonalLoop=1;jettySize=auto;html=1;exitX=1;exitY=0.5;exitDx=0;exitDy=0;exitPerimeter=0;strokeColor=default;align=center;verticalAlign=middle;fontFamily=Helvetica;fontSize=12;fontColor=default;labelBackgroundColor=default;endArrow=none;endFill=0;entryX=0;entryY=0.5;entryDx=0;entryDy=0;entryPerimeter=0;" edge="1" parent="1" source="5VMT1t41ffKibYWwTFaG-59" target="5VMT1t41ffKibYWwTFaG-67">
          <mxGeometry relative="1" as="geometry">
            <mxPoint x="500" y="920" as="targetPoint" />
          </mxGeometry>
        </mxCell>
        <mxCell id="5VMT1t41ffKibYWwTFaG-59" value="" style="verticalLabelPosition=bottom;shadow=0;dashed=0;align=center;html=1;verticalAlign=top;shape=mxgraph.electrical.logic_gates.logic_gate;operation=and;negating=1;negSize=0.15;numInputs=2;" vertex="1" parent="1">
          <mxGeometry x="400" y="920" width="86" height="40" as="geometry" />
        </mxCell>
        <mxCell id="5VMT1t41ffKibYWwTFaG-63" style="edgeStyle=orthogonalEdgeStyle;shape=connector;rounded=0;orthogonalLoop=1;jettySize=auto;html=1;exitX=0;exitY=0.25;exitDx=0;exitDy=0;exitPerimeter=0;strokeColor=default;align=center;verticalAlign=middle;fontFamily=Helvetica;fontSize=12;fontColor=default;labelBackgroundColor=default;endArrow=oval;endFill=1;" edge="1" parent="1" source="5VMT1t41ffKibYWwTFaG-62">
          <mxGeometry relative="1" as="geometry">
            <mxPoint x="150" y="990.1428571428571" as="targetPoint" />
          </mxGeometry>
        </mxCell>
        <mxCell id="5VMT1t41ffKibYWwTFaG-64" style="edgeStyle=orthogonalEdgeStyle;shape=connector;rounded=0;orthogonalLoop=1;jettySize=auto;html=1;exitX=0;exitY=0.75;exitDx=0;exitDy=0;exitPerimeter=0;strokeColor=default;align=center;verticalAlign=middle;fontFamily=Helvetica;fontSize=12;fontColor=default;labelBackgroundColor=default;endArrow=oval;endFill=1;" edge="1" parent="1" source="5VMT1t41ffKibYWwTFaG-62">
          <mxGeometry relative="1" as="geometry">
            <mxPoint x="270" y="1010.1428571428571" as="targetPoint" />
          </mxGeometry>
        </mxCell>
        <mxCell id="5VMT1t41ffKibYWwTFaG-62" value="" style="verticalLabelPosition=bottom;shadow=0;dashed=0;align=center;html=1;verticalAlign=top;shape=mxgraph.electrical.logic_gates.logic_gate;operation=and;negating=1;negSize=0.15;numInputs=2;" vertex="1" parent="1">
          <mxGeometry x="400" y="980" width="86" height="40" as="geometry" />
        </mxCell>
        <mxCell id="5VMT1t41ffKibYWwTFaG-69" style="edgeStyle=orthogonalEdgeStyle;shape=connector;rounded=0;orthogonalLoop=1;jettySize=auto;html=1;exitX=1;exitY=0.5;exitDx=0;exitDy=0;exitPerimeter=0;strokeColor=default;align=center;verticalAlign=middle;fontFamily=Helvetica;fontSize=12;fontColor=default;labelBackgroundColor=default;endArrow=none;endFill=0;" edge="1" parent="1" source="5VMT1t41ffKibYWwTFaG-67">
          <mxGeometry relative="1" as="geometry">
            <mxPoint x="640" y="939.8571428571429" as="targetPoint" />
          </mxGeometry>
        </mxCell>
        <mxCell id="5VMT1t41ffKibYWwTFaG-67" value="" style="verticalLabelPosition=bottom;shadow=0;dashed=0;align=center;html=1;verticalAlign=top;shape=mxgraph.electrical.logic_gates.logic_gate;operation=and;negating=1;negSize=0.15;numInputs=3;" vertex="1" parent="1">
          <mxGeometry x="510" y="910" width="90" height="60" as="geometry" />
        </mxCell>
        <mxCell id="5VMT1t41ffKibYWwTFaG-68" style="edgeStyle=orthogonalEdgeStyle;shape=connector;rounded=0;orthogonalLoop=1;jettySize=auto;html=1;exitX=1;exitY=0.5;exitDx=0;exitDy=0;exitPerimeter=0;entryX=0;entryY=0.8333333333333333;entryDx=0;entryDy=0;entryPerimeter=0;strokeColor=default;align=center;verticalAlign=middle;fontFamily=Helvetica;fontSize=12;fontColor=default;labelBackgroundColor=default;endArrow=none;endFill=0;" edge="1" parent="1" source="5VMT1t41ffKibYWwTFaG-62" target="5VMT1t41ffKibYWwTFaG-67">
          <mxGeometry relative="1" as="geometry">
            <Array as="points">
              <mxPoint x="500" y="1000" />
              <mxPoint x="500" y="960" />
            </Array>
          </mxGeometry>
        </mxCell>
        <mxCell id="5VMT1t41ffKibYWwTFaG-70" value="Z" style="rounded=0;whiteSpace=wrap;html=1;" vertex="1" parent="1">
          <mxGeometry x="646" y="925" width="20" height="30" as="geometry" />
        </mxCell>
        <mxCell id="5VMT1t41ffKibYWwTFaG-71" value="Logic Diagram for Prelab A" style="rounded=0;whiteSpace=wrap;html=1;" vertex="1" parent="1">
          <mxGeometry x="370" y="390" width="170" height="30" as="geometry" />
        </mxCell>
        <mxCell id="5VMT1t41ffKibYWwTFaG-72" value="Logic Diagram for Prelab B" style="rounded=0;whiteSpace=wrap;html=1;" vertex="1" parent="1">
          <mxGeometry x="290" y="710" width="170" height="30" as="geometry" />
        </mxCell>
      </root>
    </mxGraphModel>
  </diagram>
</mxfile>
